<svg xmlns="http://www.w3.org/2000/svg" fill="none" viewBox="0 0 121 107" height="107" width="121">
<g clip-path="url(#clip0_6794_36)">
<path fill="black" d="M59.0384 -0.00146476L58.7292 9.96971C53.563 10.6212 49.5791 15.0186 49.5791 20.339C49.5791 23.6506 51.1253 26.6004 53.5266 28.5005C48.142 30.9798 44.3945 36.3905 44.3945 42.6881C44.3945 50.343 49.9429 56.713 57.2558 58.034L56.9465 68.168H63.2224L62.9131 58.034C70.226 56.713 75.7742 50.343 75.7742 42.6881C75.7742 36.3905 72.0269 30.9798 66.6423 28.5005C69.0435 26.5822 70.5898 23.6325 70.5898 20.339C70.5898 15.0186 66.6059 10.6393 61.4396 9.96971L61.1303 -0.00146484L59.0384 -0.00146476ZM52.9809 20.0133C52.9809 16.5931 55.4183 13.7519 58.6382 13.0823L58.5108 17.2625L58.2198 26.8356C55.2 26.0212 52.9809 23.2707 52.9809 20.0133ZM48.5786 42.2357C48.5786 36.5895 52.6897 31.9026 58.0925 30.9617L57.4013 53.365C52.3441 52.1707 48.5786 47.6285 48.5786 42.2357ZM71.5901 42.2357C71.5901 47.6466 67.8247 52.1707 62.7676 53.365L62.0764 30.9617C67.479 31.9026 71.5901 36.5895 71.5901 42.2357ZM67.2063 20.0133C67.2063 23.2707 64.9869 26.0212 61.9672 26.8356L61.5488 13.0823C64.7868 13.7519 67.2063 16.5931 67.2063 20.0133Z"></path>
<path fill="black" d="M-0.000976562 92.2419C-0.000976562 83.8451 6.34335 78.3403 13.9005 78.3403C21.4578 78.3403 27.8021 83.8451 27.8021 92.2419C27.8021 100.639 21.3645 106.143 13.9005 106.143C6.43665 106.143 -0.000976562 100.639 -0.000976562 92.2419ZM22.2042 92.2419C22.2042 87.1105 18.3788 83.5651 13.8072 83.5651C9.23558 83.5651 5.50366 87.1105 5.50366 92.2419C5.50366 97.3733 9.32888 100.919 13.8072 100.919C18.2855 100.919 22.2042 97.3733 22.2042 92.2419Z"></path>
<path fill="black" d="M57.377 90.3852V105.5H51.8723V90.7584C51.8723 86.4666 49.26 83.8543 45.9012 83.8543C42.5425 83.8543 38.2507 85.8135 38.2507 91.3181V105.5H32.7461V79.0961H38.2507V83.2012C39.7434 79.9358 44.0353 78.4429 46.8342 78.4429C53.5517 78.4429 57.4702 82.9212 57.377 90.4784V90.3852Z"></path>
<path fill="black" d="M88.7255 94.5806H67.6399C68.3864 98.8724 71.5586 101.112 75.7569 101.112C79.9554 101.112 81.728 99.712 83.2209 97.2862L87.6059 99.5255C85.2735 103.91 80.5151 106.336 75.4771 106.336C67.8266 106.336 61.8555 100.738 61.8555 92.3415C61.8555 83.9446 67.9199 78.5332 75.4771 78.5332C83.0342 78.5332 88.7255 83.9446 88.7255 92.2481C88.7255 100.552 88.7255 93.7409 88.6321 94.5806H88.7255ZM83.3141 90.1022C82.7544 85.9972 79.7687 83.5714 75.6636 83.5714C71.5584 83.5714 68.5729 85.624 67.7332 90.1022H83.3141Z"></path>
<path fill="black" d="M120.074 94.4776C120.074 101.382 114.196 106.233 106.173 106.233C98.1488 106.233 92.1777 101.382 92.1777 94.571C92.1777 87.7602 94.9767 85.8009 99.1752 84.308C96.9359 82.9086 95.3499 80.5762 95.3499 77.404C95.3499 72.086 99.8282 68.1675 106.173 68.1675C112.517 68.1675 116.995 72.086 116.995 77.404C116.995 82.7219 115.409 82.9086 113.17 84.308C117.368 85.8941 120.167 89.8128 120.167 94.571L120.074 94.4776ZM114.29 94.1045C114.29 89.9059 110.651 87.0138 106.173 87.0138C101.694 87.0138 97.9623 89.9993 97.9623 94.1045C97.9623 98.2096 101.508 101.102 106.173 101.102C110.837 101.102 114.29 98.023 114.29 94.1978V94.1045ZM101.134 77.8704C101.134 80.4829 103.374 82.4421 106.266 82.4421C109.158 82.4421 111.397 80.4829 111.397 77.8704C111.397 75.2581 109.158 73.1122 106.266 73.1122C103.374 73.1122 101.134 75.2581 101.134 77.8704Z"></path>
</g>
<defs>
<clipPath id="clip0_6794_36">
<rect fill="white" height="107" width="120.169"></rect>
</clipPath>
</defs>
</svg>
